<?xml version="1.0" encoding="utf-8"?>
<!-- Generator: Adobe Illustrator 26.3.1, SVG Export Plug-In . SVG Version: 6.00 Build 0)  -->
<svg version="1.1" id="Layer_1" xmlns="http://www.w3.org/2000/svg" xmlns:xlink="http://www.w3.org/1999/xlink" x="0px" y="0px"
	 viewBox="0 0 100 100" style="enable-background:new 0 0 100 100;" xml:space="preserve">
<style type="text/css">
	.st0{fill:#020202;}
</style>
<g>
	<path class="st0" d="M49.98,1.37C23.14,1.37,1.39,23.16,1.39,50c0,26.84,21.74,48.63,48.59,48.63c26.88,0,48.63-21.78,48.63-48.63
		C98.61,23.16,76.86,1.37,49.98,1.37z M35.88,80.97H17.06V65.3c0-10.39,8.4-18.82,18.82-18.82V80.97z M35.88,43.33h-3.15
		c-8.66,0-15.67-7.01-15.67-15.67h18.82V43.33z M54.71,70.81L37.08,46.48h12.15c10.12,0,19.57,4.8,25.49,12.97l8.21,11.36H54.71z
		 M74.73,30.35c-5.92,8.17-15.37,12.97-25.49,12.97H37.08l17.62-24.29h28.23L74.73,30.35z"/>
</g>
</svg>
