<?xml version="1.0" encoding="utf-8"?>
<!-- Generator: Adobe Illustrator 26.3.1, SVG Export Plug-In . SVG Version: 6.00 Build 0)  -->
<svg version="1.1" id="Layer_1" xmlns="http://www.w3.org/2000/svg" xmlns:xlink="http://www.w3.org/1999/xlink" x="0px" y="0px"
	 viewBox="0 0 288 76.98" style="enable-background:new 0 0 288 76.98;" xml:space="preserve">
<style type="text/css">
	.st0{fill:#010000;}
</style>
<g>
	<polygon class="st0" points="132.92,21.16 121.01,21.16 109.13,34.43 107.81,34.43 107.81,6.36 98.67,6.36 98.67,57.13 
		107.81,57.13 107.81,42.83 109.13,42.83 121.75,57.13 133.5,57.13 116.31,38.56 	"/>
	<rect x="139.58" y="21.16" class="st0" width="9.14" height="35.97"/>
	<path class="st0" d="M144.17,5.33c-1.65,0-3.06,0.53-4.18,1.6c-1.15,1.07-1.72,2.46-1.72,4.2s0.57,3.15,1.72,4.23
		c1.12,1.05,2.53,1.57,4.18,1.57c1.67,0,3.08-0.53,4.2-1.57c1.1-1.07,1.67-2.48,1.67-4.23s-0.57-3.13-1.67-4.2
		C147.25,5.86,145.84,5.33,144.17,5.33z"/>
	<path class="st0" d="M187.06,22.5c-2.1-1.29-4.56-1.93-7.35-1.93c-3.25,0-5.66,0.57-7.26,1.72c-1.6,1.12-2.7,2.34-3.27,3.58h-1.31
		v-4.7h-9v35.97h9.14V38.85c0-3.34,0.79-5.92,2.34-7.81c1.53-1.84,3.72-2.79,6.52-2.79c2.46,0,4.37,0.69,5.7,2.05
		c1.31,1.34,1.98,3.37,1.98,6.09v20.74h9.14V35.65c0-2.98-0.57-5.61-1.74-7.85C190.78,25.55,189.16,23.79,187.06,22.5z"/>
	<path class="st0" d="M230.69,25.5h-1.31c-0.76-1.26-2.01-2.46-3.7-3.63c-1.69-1.17-4.18-1.74-7.47-1.74
		c-2.94,0-5.66,0.72-8.16,2.15c-2.48,1.43-4.49,3.48-5.97,6.16c-1.5,2.7-2.27,5.92-2.27,9.69v1.15c0,3.77,0.76,7.02,2.27,9.69
		c1.48,2.7,3.48,4.75,5.97,6.16c2.51,1.43,5.23,2.15,8.16,2.15c2.22,0,4.06-0.26,5.51-0.79c1.46-0.55,2.63-1.22,3.48-2.01
		c0.86-0.79,1.55-1.58,2.03-2.36h1.31v9.36c0,1.46-0.69,2.17-2.03,2.17h-20.89v8h24.06c2.43,0,4.37-0.74,5.82-2.22
		c1.43-1.48,2.17-3.44,2.17-5.92V21.16h-9V25.5z M230.69,39.06c0,3.25-0.95,5.75-2.84,7.54c-1.89,1.79-4.23,2.7-7.02,2.7
		c-2.82,0-5.16-0.91-7.04-2.7s-2.84-4.3-2.84-7.54v-0.72c0-3.29,0.95-5.82,2.84-7.59c1.89-1.77,4.22-2.65,7.04-2.65
		c2.84,0,5.2,0.88,7.07,2.65c1.86,1.77,2.79,4.3,2.79,7.59V39.06z"/>
	<path class="st0" d="M283.35,28.63c-1.65-2.77-3.89-4.87-6.76-6.33c-2.84-1.43-6.06-2.17-9.64-2.17c-3.58,0-6.78,0.74-9.64,2.17
		c-2.84,1.46-5.11,3.56-6.73,6.33c-1.65,2.75-2.48,6.06-2.48,9.93v1.17c0,3.87,0.84,7.16,2.48,9.93c1.62,2.75,3.89,4.87,6.73,6.3
		c2.86,1.46,6.06,2.2,9.64,2.2c3.58,0,6.8-0.74,9.64-2.2c2.86-1.43,5.11-3.56,6.76-6.3c1.65-2.77,2.46-6.06,2.46-9.93v-1.17
		C285.81,34.69,285,31.38,283.35,28.63z M276.67,39.49c0,3.39-0.91,5.99-2.75,7.81c-1.84,1.81-4.15,2.72-6.97,2.72
		c-2.79,0-5.11-0.91-6.95-2.72c-1.84-1.81-2.77-4.42-2.77-7.81v-0.72c0-3.39,0.93-5.99,2.77-7.81c1.84-1.82,4.15-2.72,6.95-2.72
		c2.86,0,5.2,0.91,7.02,2.72c1.81,1.81,2.7,4.42,2.7,7.81V39.49z"/>
	<path class="st0" d="M39.19,1.49c-20.43,0-37,16.57-37,37s16.57,37,37,37c20.43,0,37-16.57,37-37S59.62,1.49,39.19,1.49z
		 M28.45,62.05H14.12V50.11c0-7.9,6.4-14.32,14.32-14.32V62.05z M28.45,33.41h-2.39c-6.61,0-11.93-5.32-11.93-11.91v-0.02h14.32
		V33.41z M42.77,54.31L29.35,35.79h9.26c7.69,0,14.87,3.68,19.38,9.88l6.25,8.64H42.77z M58,23.55c-4.51,6.21-11.7,9.86-19.38,9.86
		h-9.26l13.42-18.48h21.48L58,23.55z"/>
</g>
</svg>
